<svg xmlns="http://www.w3.org/2000/svg" viewBox="0 0 1441 768" preserveAspectRatio="xMidYMid" width="1441" height="768" xmlns:xlink="http://www.w3.org/1999/xlink" style="shape-rendering:auto;display:block;background-position-x:0%;background-position-y:0%;background-size:auto;background-origin:padding-box;background-clip:border-box;background:scroll rgb(255, 255, 255) none  repeat;width:1441px;height:768px;;animation:none"><g><defs><filter height="6" width="6" y="-2" x="-2" id="f-i47ulg8k9iq"><feGaussianBlur stdDeviation="30"></feGaussianBlur>

  
<feComponentTransfer result="cutoff"><feFuncA intercept="-60" slope="100" type="linear"></feFuncA></feComponentTransfer></filter></defs>
<g filter="url(#f-i47ulg8k9iq)" id="g-i47ulg8k9iq"><circle r="154" cy="0" cx="0" transform="matrix(1,0,0,1,315.0926208496094,505.3419494628906)" style="fill:rgb(0, 255, 255);transform:matrix(1, 0, 0, 1, 315.093, 505.342);;animation:none"></circle>
<circle r="133" cy="0" cx="0" transform="matrix(1,0,0,1,837.2879028320312,612.0653076171875)" style="fill:rgb(0, 255, 255);transform:matrix(1, 0, 0, 1, 837.288, 612.065);;animation:none"></circle>
<circle r="145" cy="0" cx="0" transform="matrix(1,0,0,1,1424.1387939453125,660.8392333984375)" style="fill:rgb(0, 255, 255);transform:matrix(1, 0, 0, 1, 1424.14, 660.839);;animation:none"></circle>
<circle r="103" cy="0" cx="0" transform="matrix(1,0,0,1,247.58499145507812,148.700439453125)" style="fill:rgb(0, 255, 255);transform:matrix(1, 0, 0, 1, 247.585, 148.7);;animation:none"></circle>
<circle r="87" cy="0" cx="0" transform="matrix(1,0,0,1,781.83935546875,886.9287719726562)" style="fill:rgb(0, 255, 255);transform:matrix(1, 0, 0, 1, 781.839, 886.929);;animation:none"></circle>
<circle r="115" cy="0" cx="0" transform="matrix(1,0,0,1,873.5770263671875,186.88267517089844)" style="fill:rgb(0, 255, 255);transform:matrix(1, 0, 0, 1, 873.577, 186.883);;animation:none"></circle>
<circle r="146" cy="0" cx="0" transform="matrix(1,0,0,1,673.710205078125,646.187255859375)" style="fill:rgb(0, 255, 255);transform:matrix(1, 0, 0, 1, 673.71, 646.187);;animation:none"></circle>
<circle r="71" cy="0" cx="0" transform="matrix(1,0,0,1,335.93218994140625,256.07843017578125)" style="fill:rgb(0, 255, 255);transform:matrix(1, 0, 0, 1, 335.932, 256.078);;animation:none"></circle>
<circle r="140" cy="0" cx="0" transform="matrix(1,0,0,1,279.6989440917969,569.4012451171875)" style="fill:rgb(0, 255, 255);transform:matrix(1, 0, 0, 1, 279.699, 569.401);;animation:none"></circle>
<circle r="89" cy="0" cx="0" transform="matrix(1,0,0,1,296.0345153808594,617.0411987304688)" style="fill:rgb(0, 255, 255);transform:matrix(1, 0, 0, 1, 296.035, 617.041);;animation:none"></circle>
<circle r="148" cy="0" cx="0" transform="matrix(1,0,0,1,514.1001586914062,553.0645751953125)" style="fill:rgb(0, 255, 255);transform:matrix(1, 0, 0, 1, 514.1, 553.065);;animation:none"></circle>
<circle r="156" cy="0" cx="0" transform="matrix(1,0,0,1,1552.520751953125,215.1571807861328)" style="fill:rgb(0, 255, 255);transform:matrix(1, 0, 0, 1, 1552.52, 215.157);;animation:none"></circle>
<circle r="111" cy="0" cx="0" transform="matrix(1,0,0,1,730.742431640625,451.0967712402344)" style="fill:rgb(0, 255, 255);transform:matrix(1, 0, 0, 1, 730.742, 451.097);;animation:none"></circle>
<circle r="128" cy="0" cx="0" transform="matrix(1,0,0,1,25.958526611328125,720.6375122070312)" style="fill:rgb(0, 255, 255);transform:matrix(1, 0, 0, 1, 25.9585, 720.638);;animation:none"></circle>
<circle r="90" cy="0" cx="0" transform="matrix(1,0,0,1,1279.313232421875,-68.29568481445312)" style="fill:rgb(0, 255, 255);transform:matrix(1, 0, 0, 1, 1279.31, -68.2957);;animation:none"></circle></g>
<style type="text/css">#g-i47ulg8k9iq circle { fill: #00ffff}</style>
<g></g></g><!-- [ldio] generated by https://loading.io --></svg>