<svg xmlns="http://www.w3.org/2000/svg" viewBox="0 0 1441 768" preserveAspectRatio="xMidYMid" width="1441" height="768" xmlns:xlink="http://www.w3.org/1999/xlink" style="shape-rendering:auto;display:block;background-position-x:0%;background-position-y:0%;background-size:auto;background-origin:padding-box;background-clip:border-box;background:scroll rgb(26, 27, 32) none  repeat;width:1441px;height:768px;;animation:none"><g><path stroke-width="2" stroke-opacity="0" stroke="rgb(98, 82, 197)" fill="none" d="M 0 426.5 C 240 426.5 481 541.5 721 541.5 C 961 541.5 1202 426.5 1442 426.5 C 1682 426.5 1923 541.5 2163 541.5 C 2403 541.5 2644 426.5 2884 426.5" transform="matrix(1,0,0,1,0,0)" style="fill:none;stroke:rgb(98, 82, 197);transform:matrix(1, 0, 0, 1, 0, 0);;animation:none"></path>
<path stroke-width="2" stroke-opacity="0" stroke="rgb(98, 82, 197)" fill="none" d="M 0 426.518 C 240 426.518 481 541.482 721 541.482 C 961 541.482 1202 426.518 1442 426.518 C 1682 426.518 1923 541.482 2163 541.482 C 2403 541.482 2644 426.518 2884 426.518" transform="matrix(1,0,0,1,-7.685213088989258,0)" style="fill:none;stroke:rgb(98, 82, 197);transform:matrix(1, 0, 0, 1, -7.68521, 0);;animation:none"></path>
<path stroke-width="2" stroke-opacity="0" stroke="rgb(98, 82, 197)" fill="none" d="M 0 426.571 C 240 426.571 481 541.429 721 541.429 C 961 541.429 1202 426.571 1442 426.571 C 1682 426.571 1923 541.429 2163 541.429 C 2403 541.429 2644 426.571 2884 426.571" transform="matrix(1,0,0,1,-15.370426177978516,0)" style="fill:none;stroke:rgb(98, 82, 197);transform:matrix(1, 0, 0, 1, -15.3704, 0);;animation:none"></path>
<path stroke-width="2" stroke-opacity="0" stroke="rgb(98, 82, 197)" fill="none" d="M 0 426.662 C 240 426.662 481 541.338 721 541.338 C 961 541.338 1202 426.662 1442 426.662 C 1682 426.662 1923 541.338 2163 541.338 C 2403 541.338 2644 426.662 2884 426.662" transform="matrix(1,0,0,1,-23.056001663208008,0)" style="fill:none;stroke:rgb(98, 82, 197);transform:matrix(1, 0, 0, 1, -23.056, 0);;animation:none"></path>
<path stroke-width="2" stroke-opacity="0" stroke="rgb(97, 83, 197)" fill="none" d="M 0 426.79 C 240 426.79 481 541.21 721 541.21 C 961 541.21 1202 426.79 1442 426.79 C 1682 426.79 1923 541.21 2163 541.21 C 2403 541.21 2644 426.79 2884 426.79" transform="matrix(1,0,0,1,-30.741212844848633,0)" style="fill:none;stroke:rgb(97, 83, 197);transform:matrix(1, 0, 0, 1, -30.7412, 0);;animation:none"></path>
<path stroke-width="2" stroke-opacity="0" stroke="rgb(97, 83, 197)" fill="none" d="M 0 426.958 C 240 426.958 481 541.042 721 541.042 C 961 541.042 1202 426.958 1442 426.958 C 1682 426.958 1923 541.042 2163 541.042 C 2403 541.042 2644 426.958 2884 426.958" transform="matrix(1,0,0,1,-38.42642593383789,0)" style="fill:none;stroke:rgb(97, 83, 197);transform:matrix(1, 0, 0, 1, -38.4264, 0);;animation:none"></path>
<path stroke-width="2" stroke-opacity="0" stroke="rgb(97, 84, 198)" fill="none" d="M 0 427.166 C 240 427.166 481 540.834 721 540.834 C 961 540.834 1202 427.166 1442 427.166 C 1682 427.166 1923 540.834 2163 540.834 C 2403 540.834 2644 427.166 2884 427.166" transform="matrix(1,0,0,1,-46.112003326416016,0)" style="fill:none;stroke:rgb(97, 84, 198);transform:matrix(1, 0, 0, 1, -46.112, 0);;animation:none"></path>
<path stroke-width="2" stroke-opacity="0" stroke="rgb(96, 85, 198)" fill="none" d="M 0 427.415 C 240 427.415 481 540.585 721 540.585 C 961 540.585 1202 427.415 1442 427.415 C 1682 427.415 1923 540.585 2163 540.585 C 2403 540.585 2644 427.415 2884 427.415" transform="matrix(1,0,0,1,-53.79721450805664,0)" style="fill:none;stroke:rgb(96, 85, 198);transform:matrix(1, 0, 0, 1, -53.7972, 0);;animation:none"></path>
<path stroke-width="2" stroke-opacity="0" stroke="rgb(95, 86, 198)" fill="none" d="M 0 427.707 C 240 427.707 481 540.292 721 540.292 C 961 540.292 1202 427.707 1442 427.707 C 1682 427.707 1923 540.292 2163 540.292 C 2403 540.292 2644 427.707 2884 427.707" transform="matrix(1,0,0,1,-61.482425689697266,0)" style="fill:none;stroke:rgb(95, 86, 198);transform:matrix(1, 0, 0, 1, -61.4824, 0);;animation:none"></path>
<path stroke-width="2" stroke-opacity="0" stroke="rgb(95, 87, 198)" fill="none" d="M 0 428.044 C 240 428.044 481 539.956 721 539.956 C 961 539.956 1202 428.044 1442 428.044 C 1682 428.044 1923 539.956 2163 539.956 C 2403 539.956 2644 428.044 2884 428.044" transform="matrix(1,0,0,1,-69.16799926757812,0)" style="fill:none;stroke:rgb(95, 87, 198);transform:matrix(1, 0, 0, 1, -69.168, 0);;animation:none"></path>
<path stroke-width="2" stroke-opacity="0" stroke="rgb(94, 88, 199)" fill="none" d="M 0 428.425 C 240 428.425 481 539.575 721 539.575 C 961 539.575 1202 428.425 1442 428.425 C 1682 428.425 1923 539.575 2163 539.575 C 2403 539.575 2644 428.425 2884 428.425" transform="matrix(1,0,0,1,-76.85321044921875,0)" style="fill:none;stroke:rgb(94, 88, 199);transform:matrix(1, 0, 0, 1, -76.8532, 0);;animation:none"></path>
<path stroke-width="2" stroke-opacity="0" stroke="rgb(93, 89, 199)" fill="none" d="M 0 428.854 C 240 428.854 481 539.146 721 539.146 C 961 539.146 1202 428.854 1442 428.854 C 1682 428.854 1923 539.146 2163 539.146 C 2403 539.146 2644 428.854 2884 428.854" transform="matrix(1,0,0,1,-84.5384292602539,0)" style="fill:none;stroke:rgb(93, 89, 199);transform:matrix(1, 0, 0, 1, -84.5384, 0);;animation:none"></path>
<path stroke-width="2" stroke-opacity="0" stroke="rgb(92, 91, 200)" fill="none" d="M 0 429.33 C 240 429.33 481 538.67 721 538.67 C 961 538.67 1202 429.33 1442 429.33 C 1682 429.33 1923 538.67 2163 538.67 C 2403 538.67 2644 429.33 2884 429.33" transform="matrix(1,0,0,1,-92.22400665283203,0)" style="fill:none;stroke:rgb(92, 91, 200);transform:matrix(1, 0, 0, 1, -92.224, 0);;animation:none"></path>
<path stroke-width="2" stroke-opacity="0" stroke="rgb(91, 92, 200)" fill="none" d="M 0 429.856 C 240 429.856 481 538.144 721 538.144 C 961 538.144 1202 429.856 1442 429.856 C 1682 429.856 1923 538.144 2163 538.144 C 2403 538.144 2644 429.856 2884 429.856" transform="matrix(1,0,0,1,-99.90921020507812,0)" style="fill:none;stroke:rgb(91, 92, 200);transform:matrix(1, 0, 0, 1, -99.9092, 0);;animation:none"></path>
<path stroke-width="2" stroke-opacity="0" stroke="rgb(89, 94, 201)" fill="none" d="M 0 430.433 C 240 430.433 481 537.567 721 537.567 C 961 537.567 1202 430.433 1442 430.433 C 1682 430.433 1923 537.567 2163 537.567 C 2403 537.567 2644 430.433 2884 430.433" transform="matrix(1,0,0,1,-107.59442901611328,0)" style="fill:none;stroke:rgb(89, 94, 201);transform:matrix(1, 0, 0, 1, -107.594, 0);;animation:none"></path>
<path stroke-width="2" stroke-opacity="0" stroke="rgb(88, 96, 202)" fill="none" d="M 0 431.063 C 240 431.063 481 536.937 721 536.937 C 961 536.937 1202 431.063 1442 431.063 C 1682 431.063 1923 536.937 2163 536.937 C 2403 536.937 2644 431.063 2884 431.063" transform="matrix(1,0,0,1,-115.27999877929688,0)" style="fill:none;stroke:rgb(88, 96, 202);transform:matrix(1, 0, 0, 1, -115.28, 0);;animation:none"></path>
<path stroke-width="2" stroke-opacity="0" stroke="rgb(86, 99, 202)" fill="none" d="M 0 431.746 C 240 431.746 481 536.254 721 536.254 C 961 536.254 1202 431.746 1442 431.746 C 1682 431.746 1923 536.254 2163 536.254 C 2403 536.254 2644 431.746 2884 431.746" transform="matrix(1,0,0,1,-122.96521759033203,0)" style="fill:none;stroke:rgb(86, 99, 202);transform:matrix(1, 0, 0, 1, -122.965, 0);;animation:none"></path>
<path stroke-width="2" stroke-opacity="0" stroke="rgb(84, 101, 203)" fill="none" d="M 0 432.485 C 240 432.485 481 535.515 721 535.515 C 961 535.515 1202 432.485 1442 432.485 C 1682 432.485 1923 535.515 2163 535.515 C 2403 535.515 2644 432.485 2884 432.485" transform="matrix(1,0,0,1,-130.6504364013672,0)" style="fill:none;stroke:rgb(84, 101, 203);transform:matrix(1, 0, 0, 1, -130.65, 0);;animation:none"></path>
<path stroke-width="2" stroke-opacity="0" stroke="rgb(82, 104, 204)" fill="none" d="M 0 433.281 C 240 433.281 481 534.719 721 534.719 C 961 534.719 1202 433.281 1442 433.281 C 1682 433.281 1923 534.719 2163 534.719 C 2403 534.719 2644 433.281 2884 433.281" transform="matrix(1,0,0,1,-138.33599853515625,0)" style="fill:none;stroke:rgb(82, 104, 204);transform:matrix(1, 0, 0, 1, -138.336, 0);;animation:none"></path>
<path stroke-width="2" stroke-opacity="0" stroke="rgb(80, 107, 205)" fill="none" d="M 0 434.136 C 240 434.136 481 533.864 721 533.864 C 961 533.864 1202 434.136 1442 434.136 C 1682 434.136 1923 533.864 2163 533.864 C 2403 533.864 2644 434.136 2884 434.136" transform="matrix(1,0,0,1,-146.02122497558594,0)" style="fill:none;stroke:rgb(80, 107, 205);transform:matrix(1, 0, 0, 1, -146.021, 0);;animation:none"></path>
<path stroke-width="2" stroke-opacity="0" stroke="rgb(78, 109, 206)" fill="none" d="M 0 435.051 C 240 435.051 481 532.949 721 532.949 C 961 532.949 1202 435.051 1442 435.051 C 1682 435.051 1923 532.949 2163 532.949 C 2403 532.949 2644 435.051 2884 435.051" transform="matrix(1,0,0,1,-153.7064208984375,0)" style="fill:none;stroke:rgb(78, 109, 206);transform:matrix(1, 0, 0, 1, -153.706, 0);;animation:none"></path>
<path stroke-width="2" stroke-opacity="0" stroke="rgb(76, 113, 207)" fill="none" d="M 0 436.028 C 240 436.028 481 531.972 721 531.972 C 961 531.972 1202 436.028 1442 436.028 C 1682 436.028 1923 531.972 2163 531.972 C 2403 531.972 2644 436.028 2884 436.028" transform="matrix(1,0,0,1,-161.39199829101562,0)" style="fill:none;stroke:rgb(76, 113, 207);transform:matrix(1, 0, 0, 1, -161.392, 0);;animation:none"></path>
<path stroke-width="2" stroke-opacity="0" stroke="rgb(73, 116, 208)" fill="none" d="M 0 437.068 C 240 437.068 481 530.932 721 530.932 C 961 530.932 1202 437.068 1442 437.068 C 1682 437.068 1923 530.932 2163 530.932 C 2403 530.932 2644 437.068 2884 437.068" transform="matrix(1,0,0,1,-169.07720947265625,0)" style="fill:none;stroke:rgb(73, 116, 208);transform:matrix(1, 0, 0, 1, -169.077, 0);;animation:none"></path>
<path stroke-width="2" stroke-opacity="0" stroke="rgb(71, 119, 209)" fill="none" d="M 0 438.173 C 240 438.173 481 529.827 721 529.827 C 961 529.827 1202 438.173 1442 438.173 C 1682 438.173 1923 529.827 2163 529.827 C 2403 529.827 2644 438.173 2884 438.173" transform="matrix(1,0,0,1,-176.76242065429688,0)" style="fill:none;stroke:rgb(71, 119, 209);transform:matrix(1, 0, 0, 1, -176.762, 0);;animation:none"></path>
<path stroke-width="2" stroke-opacity="0" stroke="rgb(69, 122, 210)" fill="none" d="M 0 439.345 C 240 439.345 481 528.655 721 528.655 C 961 528.655 1202 439.345 1442 439.345 C 1682 439.345 1923 528.655 2163 528.655 C 2403 528.655 2644 439.345 2884 439.345" transform="matrix(1,0,0,1,-184.44801330566406,0)" style="fill:none;stroke:rgb(69, 122, 210);transform:matrix(1, 0, 0, 1, -184.448, 0);;animation:none"></path>
<path stroke-width="2" stroke-opacity="0" stroke="rgb(66, 126, 211)" fill="none" d="M 0 440.583 C 240 440.583 481 527.417 721 527.417 C 961 527.417 1202 440.584 1442 440.584 C 1682 440.584 1923 527.417 2163 527.417 C 2403 527.417 2644 440.584 2884 440.584" transform="matrix(1,0,0,1,-192.13320922851562,0)" style="fill:none;stroke:rgb(66, 126, 211);transform:matrix(1, 0, 0, 1, -192.133, 0);;animation:none"></path>
<path stroke-width="2" stroke-opacity="0" stroke="rgb(64, 129, 212)" fill="none" d="M 0 441.891 C 240 441.891 481 526.109 721 526.109 C 961 526.109 1202 441.891 1442 441.891 C 1682 441.891 1923 526.109 2163 526.109 C 2403 526.109 2644 441.891 2884 441.891" transform="matrix(1,0,0,1,-199.81842041015625,0)" style="fill:none;stroke:rgb(64, 129, 212);transform:matrix(1, 0, 0, 1, -199.818, 0);;animation:none"></path>
<path stroke-width="2" stroke-opacity="0" stroke="rgb(62, 132, 213)" fill="none" d="M 0 443.269 C 240 443.269 481 524.731 721 524.731 C 961 524.731 1202 443.269 1442 443.269 C 1682 443.269 1923 524.731 2163 524.731 C 2403 524.731 2644 443.269 2884 443.269" transform="matrix(1,0,0,1,-207.50399780273438,0)" style="fill:none;stroke:rgb(62, 132, 213);transform:matrix(1, 0, 0, 1, -207.504, 0);;animation:none"></path>
<path stroke-width="2" stroke-opacity="0" stroke="rgb(60, 135, 214)" fill="none" d="M 0 444.717 C 240 444.717 481 523.283 721 523.283 C 961 523.283 1202 444.717 1442 444.717 C 1682 444.717 1923 523.283 2163 523.283 C 2403 523.283 2644 444.717 2884 444.717" transform="matrix(1,0,0,1,-215.18922424316406,0)" style="fill:none;stroke:rgb(60, 135, 214);transform:matrix(1, 0, 0, 1, -215.189, 0);;animation:none"></path>
<path stroke-width="2" stroke-opacity="0" stroke="rgb(58, 138, 215)" fill="none" d="M 0 446.237 C 240 446.237 481 521.763 721 521.763 C 961 521.763 1202 446.237 1442 446.237 C 1682 446.237 1923 521.763 2163 521.763 C 2403 521.763 2644 446.237 2884 446.237" transform="matrix(1,0,0,1,-222.87442016601562,0)" style="fill:none;stroke:rgb(58, 138, 215);transform:matrix(1, 0, 0, 1, -222.874, 0);;animation:none"></path>
<path stroke-width="2" stroke-opacity="0" stroke="rgb(56, 140, 216)" fill="none" d="M 0 447.829 C 240 447.829 481 520.171 721 520.171 C 961 520.171 1202 447.829 1442 447.829 C 1682 447.829 1923 520.171 2163 520.171 C 2403 520.171 2644 447.829 2884 447.829" transform="matrix(1,0,0,1,-230.55999755859375,0)" style="fill:none;stroke:rgb(56, 140, 216);transform:matrix(1, 0, 0, 1, -230.56, 0);;animation:none"></path>
<path stroke-width="2" stroke-opacity="0" stroke="rgb(54, 143, 217)" fill="none" d="M 0 449.493 C 240 449.493 481 518.507 721 518.507 C 961 518.507 1202 449.493 1442 449.493 C 1682 449.493 1923 518.507 2163 518.507 C 2403 518.507 2644 449.493 2884 449.493" transform="matrix(1,0,0,1,-238.24522399902344,0)" style="fill:none;stroke:rgb(54, 143, 217);transform:matrix(1, 0, 0, 1, -238.245, 0);;animation:none"></path>
<path stroke-width="2" stroke-opacity="0" stroke="rgb(52, 145, 217)" fill="none" d="M 0 451.229 C 240 451.229 481 516.771 721 516.771 C 961 516.771 1202 451.229 1442 451.229 C 1682 451.229 1923 516.771 2163 516.771 C 2403 516.771 2644 451.229 2884 451.229" transform="matrix(1,0,0,1,-245.93043518066406,0)" style="fill:none;stroke:rgb(52, 145, 217);transform:matrix(1, 0, 0, 1, -245.93, 0);;animation:none"></path>
<path stroke-width="2" stroke-opacity="0" stroke="rgb(51, 147, 218)" fill="none" d="M 0 453.037 C 240 453.037 481 514.963 721 514.963 C 961 514.963 1202 453.037 1442 453.037 C 1682 453.037 1923 514.963 2163 514.963 C 2403 514.963 2644 453.037 2884 453.037" transform="matrix(1,0,0,1,-253.61599731445312,0)" style="fill:none;stroke:rgb(51, 147, 218);transform:matrix(1, 0, 0, 1, -253.616, 0);;animation:none"></path>
<path stroke-width="2" stroke-opacity="0" stroke="rgb(49, 149, 219)" fill="none" d="M 0 454.915 C 240 454.915 481 513.085 721 513.085 C 961 513.085 1202 454.915 1442 454.915 C 1682 454.915 1923 513.085 2163 513.085 C 2403 513.085 2644 454.915 2884 454.915" transform="matrix(1,0,0,1,-261.30120849609375,0)" style="fill:none;stroke:rgb(49, 149, 219);transform:matrix(1, 0, 0, 1, -261.301, 0);;animation:none"></path>
<path stroke-width="2" stroke-opacity="0" stroke="rgb(48, 151, 219)" fill="none" d="M 0 456.863 C 240 456.863 481 511.137 721 511.137 C 961 511.137 1202 456.863 1442 456.863 C 1682 456.863 1923 511.137 2163 511.137 C 2403 511.137 2644 456.863 2884 456.863" transform="matrix(1,0,0,1,-268.9864196777344,0)" style="fill:none;stroke:rgb(48, 151, 219);transform:matrix(1, 0, 0, 1, -268.986, 0);;animation:none"></path>
<path stroke-width="2" stroke-opacity="0" stroke="rgb(47, 152, 220)" fill="none" d="M 0 458.877 C 240 458.877 481 509.123 721 509.123 C 961 509.123 1202 458.877 1442 458.877 C 1682 458.877 1923 509.123 2163 509.123 C 2403 509.123 2644 458.877 2884 458.877" transform="matrix(1,0,0,1,-276.6719970703125,0)" style="fill:none;stroke:rgb(47, 152, 220);transform:matrix(1, 0, 0, 1, -276.672, 0);;animation:none"></path>
<path stroke-width="2" stroke-opacity="0" stroke="rgb(46, 153, 220)" fill="none" d="M 0 460.957 C 240 460.957 481 507.043 721 507.043 C 961 507.043 1202 460.957 1442 460.957 C 1682 460.957 1923 507.043 2163 507.043 C 2403 507.043 2644 460.957 2884 460.957" transform="matrix(1,0,0,1,-284.3572082519531,0)" style="fill:none;stroke:rgb(46, 153, 220);transform:matrix(1, 0, 0, 1, -284.357, 0);;animation:none"></path>
<path stroke-width="2" stroke-opacity="0" stroke="rgb(45, 155, 221)" fill="none" d="M 0 463.097 C 240 463.097 481 504.903 721 504.903 C 961 504.903 1202 463.097 1442 463.097 C 1682 463.097 1923 504.903 2163 504.903 C 2403 504.903 2644 463.097 2884 463.097" transform="matrix(1,0,0,1,-292.0424499511719,0)" style="fill:none;stroke:rgb(45, 155, 221);transform:matrix(1, 0, 0, 1, -292.042, 0);;animation:none"></path>
<path stroke-width="2" stroke-opacity="0" stroke="rgb(44, 156, 221)" fill="none" d="M 0 465.296 C 240 465.296 481 502.704 721 502.704 C 961 502.704 1202 465.296 1442 465.296 C 1682 465.296 1923 502.704 2163 502.704 C 2403 502.704 2644 465.296 2884 465.296" transform="matrix(1,0,0,1,-299.7279968261719,0)" style="fill:none;stroke:rgb(44, 156, 221);transform:matrix(1, 0, 0, 1, -299.728, 0);;animation:none"></path>
<path stroke-width="2" stroke-opacity="0" stroke="rgb(44, 156, 221)" fill="none" d="M 0 467.548 C 240 467.548 481 500.452 721 500.452 C 961 500.452 1202 467.548 1442 467.548 C 1682 467.548 1923 500.452 2163 500.452 C 2403 500.452 2644 467.548 2884 467.548" transform="matrix(1,0,0,1,-307.4132080078125,0)" style="fill:none;stroke:rgb(44, 156, 221);transform:matrix(1, 0, 0, 1, -307.413, 0);;animation:none"></path>
<path stroke-width="2" stroke-opacity="0" stroke="rgb(43, 157, 221)" fill="none" d="M 0 469.848 C 240 469.848 481 498.152 721 498.152 C 961 498.152 1202 469.848 1442 469.848 C 1682 469.848 1923 498.152 2163 498.152 C 2403 498.152 2644 469.848 2884 469.848" transform="matrix(1,0,0,1,-315.0984191894531,0)" style="fill:none;stroke:rgb(43, 157, 221);transform:matrix(1, 0, 0, 1, -315.098, 0);;animation:none"></path>
<path stroke-width="2" stroke-opacity="0" stroke="rgb(43, 158, 222)" fill="none" d="M 0 472.19 C 240 472.19 481 495.81 721 495.81 C 961 495.81 1202 472.19 1442 472.19 C 1682 472.19 1923 495.81 2163 495.81 C 2403 495.81 2644 472.19 2884 472.19" transform="matrix(1,0,0,1,-322.78399658203125,0)" style="fill:none;stroke:rgb(43, 158, 222);transform:matrix(1, 0, 0, 1, -322.784, 0);;animation:none"></path>
<path stroke-width="2" stroke-opacity="0" stroke="rgb(43, 158, 222)" fill="none" d="M 0 474.569 C 240 474.569 481 493.431 721 493.431 C 961 493.431 1202 474.569 1442 474.569 C 1682 474.569 1923 493.431 2163 493.431 C 2403 493.431 2644 474.569 2884 474.569" transform="matrix(1,0,0,1,-330.4692077636719,0)" style="fill:none;stroke:rgb(43, 158, 222);transform:matrix(1, 0, 0, 1, -330.469, 0);;animation:none"></path>
<path stroke-width="2" stroke-opacity="0" stroke="rgb(42, 159, 222)" fill="none" d="M 0 476.978 C 240 476.978 481 491.022 721 491.022 C 961 491.022 1202 476.978 1442 476.978 C 1682 476.978 1923 491.022 2163 491.022 C 2403 491.022 2644 476.978 2884 476.978" transform="matrix(1,0,0,1,-338.1544189453125,0)" style="fill:none;stroke:rgb(42, 159, 222);transform:matrix(1, 0, 0, 1, -338.154, 0);;animation:none"></path>
<path stroke-width="2" stroke-opacity="0" stroke="rgb(42, 159, 222)" fill="none" d="M 0 479.409 C 240 479.409 481 488.591 721 488.591 C 961 488.591 1202 479.409 1442 479.409 C 1682 479.409 1923 488.591 2163 488.591 C 2403 488.591 2644 479.409 2884 479.409" transform="matrix(1,0,0,1,-345.8399963378906,0)" style="fill:none;stroke:rgb(42, 159, 222);transform:matrix(1, 0, 0, 1, -345.84, 0);;animation:none"></path>
<path stroke-width="2" stroke-opacity="0.022727272727272728" stroke="rgb(42, 159, 222)" fill="none" d="M 0 481.854 C 240 481.854 481 486.146 721 486.146 C 961 486.146 1202 481.854 1442 481.854 C 1682 481.854 1923 486.146 2163 486.146 C 2403 486.146 2644 481.854 2884 481.854" transform="matrix(1,0,0,1,-353.52520751953125,0)" style="fill:none;stroke:rgb(42, 159, 222);transform:matrix(1, 0, 0, 1, -353.525, 0);;animation:none"></path>
<path stroke-width="2" stroke-opacity="0.045454545454545456" stroke="rgb(42, 159, 222)" fill="none" d="M 0 484.307 C 240 484.307 481 483.693 721 483.693 C 961 483.693 1202 484.307 1442 484.307 C 1682 484.307 1923 483.693 2163 483.693 C 2403 483.693 2644 484.307 2884 484.307" transform="matrix(1,0,0,1,-361.2104187011719,0)" style="fill:none;stroke:rgb(42, 159, 222);transform:matrix(1, 0, 0, 1, -361.21, 0);;animation:none"></path>
<path stroke-width="2" stroke-opacity="0.06818181818181818" stroke="rgb(42, 159, 222)" fill="none" d="M 0 486.758 C 240 486.758 481 481.242 721 481.242 C 961 481.242 1202 486.758 1442 486.758 C 1682 486.758 1923 481.242 2163 481.242 C 2403 481.242 2644 486.758 2884 486.758" transform="matrix(1,0,0,1,-368.8960266113281,0)" style="fill:none;stroke:rgb(42, 159, 222);transform:matrix(1, 0, 0, 1, -368.896, 0);;animation:none"></path>
<path stroke-width="2" stroke-opacity="0.09090909090909091" stroke="rgb(42, 159, 222)" fill="none" d="M 0 489.201 C 240 489.201 481 478.799 721 478.799 C 961 478.799 1202 489.201 1442 489.201 C 1682 489.201 1923 478.799 2163 478.799 C 2403 478.799 2644 489.201 2884 489.201" transform="matrix(1,0,0,1,-376.58123779296875,0)" style="fill:none;stroke:rgb(42, 159, 222);transform:matrix(1, 0, 0, 1, -376.581, 0);;animation:none"></path>
<path stroke-width="2" stroke-opacity="0.11363636363636363" stroke="rgb(42, 159, 222)" fill="none" d="M 0 491.627 C 240 491.627 481 476.373 721 476.373 C 961 476.373 1202 491.627 1442 491.627 C 1682 491.627 1923 476.373 2163 476.373 C 2403 476.373 2644 491.627 2884 491.627" transform="matrix(1,0,0,1,-384.26641845703125,0)" style="fill:none;stroke:rgb(42, 159, 222);transform:matrix(1, 0, 0, 1, -384.266, 0);;animation:none"></path>
<path stroke-width="2" stroke-opacity="0.13636363636363635" stroke="rgb(42, 160, 221)" fill="none" d="M 0 494.028 C 240 494.028 481 473.972 721 473.972 C 961 473.972 1202 494.028 1442 494.028 C 1682 494.028 1923 473.972 2163 473.972 C 2403 473.972 2644 494.028 2884 494.028" transform="matrix(1,0,0,1,-391.9520263671875,0)" style="fill:none;stroke:rgb(42, 160, 221);transform:matrix(1, 0, 0, 1, -391.952, 0);;animation:none"></path>
<path stroke-width="2" stroke-opacity="0.1590909090909091" stroke="rgb(42, 160, 221)" fill="none" d="M 0 496.399 C 240 496.399 481 471.601 721 471.601 C 961 471.601 1202 496.399 1442 496.399 C 1682 496.399 1923 471.601 2163 471.601 C 2403 471.601 2644 496.399 2884 496.399" transform="matrix(1,0,0,1,-399.6372375488281,0)" style="fill:none;stroke:rgb(42, 160, 221);transform:matrix(1, 0, 0, 1, -399.637, 0);;animation:none"></path>
<path stroke-width="2" stroke-opacity="0.18181818181818182" stroke="rgb(42, 161, 220)" fill="none" d="M 0 498.731 C 240 498.731 481 469.269 721 469.269 C 961 469.269 1202 498.731 1442 498.731 C 1682 498.731 1923 469.269 2163 469.269 C 2403 469.269 2644 498.731 2884 498.731" transform="matrix(1,0,0,1,-407.3224182128906,0)" style="fill:none;stroke:rgb(42, 161, 220);transform:matrix(1, 0, 0, 1, -407.322, 0);;animation:none"></path>
<path stroke-width="2" stroke-opacity="0.20454545454545456" stroke="rgb(42, 161, 220)" fill="none" d="M 0 501.02 C 240 501.02 481 466.98 721 466.98 C 961 466.98 1202 501.02 1442 501.02 C 1682 501.02 1923 466.98 2163 466.98 C 2403 466.98 2644 501.02 2884 501.02" transform="matrix(1,0,0,1,-415.00799560546875,0)" style="fill:none;stroke:rgb(42, 161, 220);transform:matrix(1, 0, 0, 1, -415.008, 0);;animation:none"></path>
<path stroke-width="2" stroke-opacity="0.22727272727272727" stroke="rgb(42, 162, 219)" fill="none" d="M 0 503.259 C 240 503.259 481 464.741 721 464.741 C 961 464.741 1202 503.259 1442 503.259 C 1682 503.259 1923 464.741 2163 464.741 C 2403 464.741 2644 503.259 2884 503.259" transform="matrix(1,0,0,1,-422.6932373046875,0)" style="fill:none;stroke:rgb(42, 162, 219);transform:matrix(1, 0, 0, 1, -422.693, 0);;animation:none"></path>
<path stroke-width="2" stroke-opacity="0.25" stroke="rgb(41, 163, 218)" fill="none" d="M 0 505.443 C 240 505.443 481 462.557 721 462.557 C 961 462.557 1202 505.443 1442 505.443 C 1682 505.443 1923 462.557 2163 462.557 C 2403 462.557 2644 505.443 2884 505.443" transform="matrix(1,0,0,1,-430.3784484863281,0)" style="fill:none;stroke:rgb(41, 163, 218);transform:matrix(1, 0, 0, 1, -430.378, 0);;animation:none"></path>
<path stroke-width="2" stroke-opacity="0.2727272727272727" stroke="rgb(41, 164, 217)" fill="none" d="M 0 507.569 C 240 507.569 481 460.431 721 460.431 C 961 460.431 1202 507.569 1442 507.569 C 1682 507.569 1923 460.431 2163 460.431 C 2403 460.431 2644 507.569 2884 507.569" transform="matrix(1,0,0,1,-438.0639953613281,0)" style="fill:none;stroke:rgb(41, 164, 217);transform:matrix(1, 0, 0, 1, -438.064, 0);;animation:none"></path>
<path stroke-width="2" stroke-opacity="0.29545454545454547" stroke="rgb(41, 166, 215)" fill="none" d="M 0 509.633 C 240 509.633 481 458.367 721 458.367 C 961 458.367 1202 509.633 1442 509.633 C 1682 509.633 1923 458.367 2163 458.367 C 2403 458.367 2644 509.633 2884 509.633" transform="matrix(1,0,0,1,-445.7492370605469,0)" style="fill:none;stroke:rgb(41, 166, 215);transform:matrix(1, 0, 0, 1, -445.749, 0);;animation:none"></path>
<path stroke-width="2" stroke-opacity="0.3181818181818182" stroke="rgb(41, 167, 214)" fill="none" d="M 0 511.631 C 240 511.631 481 456.369 721 456.369 C 961 456.369 1202 511.631 1442 511.631 C 1682 511.631 1923 456.369 2163 456.369 C 2403 456.369 2644 511.631 2884 511.631" transform="matrix(1,0,0,1,-453.4344482421875,0)" style="fill:none;stroke:rgb(41, 167, 214);transform:matrix(1, 0, 0, 1, -453.434, 0);;animation:none"></path>
<path stroke-width="2" stroke-opacity="0.3409090909090909" stroke="rgb(41, 168, 213)" fill="none" d="M 0 513.561 C 240 513.561 481 454.439 721 454.439 C 961 454.439 1202 513.561 1442 513.561 C 1682 513.561 1923 454.439 2163 454.439 C 2403 454.439 2644 513.561 2884 513.561" transform="matrix(1,0,0,1,-461.1199951171875,0)" style="fill:none;stroke:rgb(41, 168, 213);transform:matrix(1, 0, 0, 1, -461.12, 0);;animation:none"></path>
<path stroke-width="2" stroke-opacity="0.36363636363636365" stroke="rgb(41, 170, 211)" fill="none" d="M 0 515.422 C 240 515.422 481 452.578 721 452.578 C 961 452.578 1202 515.422 1442 515.422 C 1682 515.422 1923 452.578 2163 452.578 C 2403 452.578 2644 515.422 2884 515.422" transform="matrix(1,0,0,1,-468.8052062988281,0)" style="fill:none;stroke:rgb(41, 170, 211);transform:matrix(1, 0, 0, 1, -468.805, 0);;animation:none"></path>
<path stroke-width="2" stroke-opacity="0.38636363636363635" stroke="rgb(40, 172, 209)" fill="none" d="M 0 517.212 C 240 517.212 481 450.788 721 450.788 C 961 450.788 1202 517.212 1442 517.212 C 1682 517.212 1923 450.788 2163 450.788 C 2403 450.788 2644 517.212 2884 517.212" transform="matrix(1,0,0,1,-476.4904479980469,0)" style="fill:none;stroke:rgb(40, 172, 209);transform:matrix(1, 0, 0, 1, -476.49, 0);;animation:none"></path>
<path stroke-width="2" stroke-opacity="0.4090909090909091" stroke="rgb(40, 174, 207)" fill="none" d="M 0 518.93 C 240 518.93 481 449.07 721 449.07 C 961 449.07 1202 518.93 1442 518.93 C 1682 518.93 1923 449.07 2163 449.07 C 2403 449.07 2644 518.93 2884 518.93" transform="matrix(1,0,0,1,-484.1759948730469,0)" style="fill:none;stroke:rgb(40, 174, 207);transform:matrix(1, 0, 0, 1, -484.176, 0);;animation:none"></path>
<path stroke-width="2" stroke-opacity="0.4318181818181818" stroke="rgb(40, 176, 205)" fill="none" d="M 0 520.576 C 240 520.576 481 447.424 721 447.424 C 961 447.424 1202 520.576 1442 520.576 C 1682 520.576 1923 447.424 2163 447.424 C 2403 447.424 2644 520.576 2884 520.576" transform="matrix(1,0,0,1,-491.8612060546875,0)" style="fill:none;stroke:rgb(40, 176, 205);transform:matrix(1, 0, 0, 1, -491.861, 0);;animation:none"></path>
<path stroke-width="2" stroke-opacity="0.45454545454545453" stroke="rgb(39, 179, 202)" fill="none" d="M 0 522.15 C 240 522.15 481 445.85 721 445.85 C 961 445.85 1202 522.15 1442 522.15 C 1682 522.15 1923 445.85 2163 445.85 C 2403 445.85 2644 522.15 2884 522.15" transform="matrix(1,0,0,1,-499.54644775390625,0)" style="fill:none;stroke:rgb(39, 179, 202);transform:matrix(1, 0, 0, 1, -499.546, 0);;animation:none"></path>
<path stroke-width="2" stroke-opacity="0.4772727272727273" stroke="rgb(39, 181, 200)" fill="none" d="M 0 523.652 C 240 523.652 481 444.348 721 444.348 C 961 444.348 1202 523.652 1442 523.652 C 1682 523.652 1923 444.348 2163 444.348 C 2403 444.348 2644 523.652 2884 523.652" transform="matrix(1,0,0,1,-507.23199462890625,0)" style="fill:none;stroke:rgb(39, 181, 200);transform:matrix(1, 0, 0, 1, -507.232, 0);;animation:none"></path>
<path stroke-width="2" stroke-opacity="0.5" stroke="rgb(39, 184, 197)" fill="none" d="M 0 525.082 C 240 525.082 481 442.918 721 442.918 C 961 442.918 1202 525.082 1442 525.082 C 1682 525.082 1923 442.918 2163 442.918 C 2403 442.918 2644 525.082 2884 525.082" transform="matrix(1,0,0,1,-514.9171752929688,0)" style="fill:none;stroke:rgb(39, 184, 197);transform:matrix(1, 0, 0, 1, -514.917, 0);;animation:none"></path>
<path stroke-width="2" stroke-opacity="0.5227272727272727" stroke="rgb(38, 187, 194)" fill="none" d="M 0 526.442 C 240 526.442 481 441.558 721 441.558 C 961 441.558 1202 526.442 1442 526.442 C 1682 526.442 1923 441.558 2163 441.558 C 2403 441.558 2644 526.442 2884 526.442" transform="matrix(1,0,0,1,-522.6024169921875,0)" style="fill:none;stroke:rgb(38, 187, 194);transform:matrix(1, 0, 0, 1, -522.602, 0);;animation:none"></path>
<path stroke-width="2" stroke-opacity="0.5454545454545454" stroke="rgb(38, 190, 191)" fill="none" d="M 0 527.733 C 240 527.733 481 440.267 721 440.267 C 961 440.267 1202 527.733 1442 527.733 C 1682 527.733 1923 440.267 2163 440.267 C 2403 440.267 2644 527.733 2884 527.733" transform="matrix(1,0,0,1,-530.2880249023438,0)" style="fill:none;stroke:rgb(38, 190, 191);transform:matrix(1, 0, 0, 1, -530.288, 0);;animation:none"></path>
<path stroke-width="2" stroke-opacity="0.5681818181818182" stroke="rgb(38, 193, 188)" fill="none" d="M 0 528.954 C 240 528.954 481 439.046 721 439.046 C 961 439.046 1202 528.954 1442 528.954 C 1682 528.954 1923 439.046 2163 439.046 C 2403 439.046 2644 528.954 2884 528.954" transform="matrix(1,0,0,1,-537.9732055664062,0)" style="fill:none;stroke:rgb(38, 193, 188);transform:matrix(1, 0, 0, 1, -537.973, 0);;animation:none"></path>
<path stroke-width="2" stroke-opacity="0.5909090909090909" stroke="rgb(37, 196, 185)" fill="none" d="M 0 530.109 C 240 530.109 481 437.891 721 437.891 C 961 437.891 1202 530.109 1442 530.109 C 1682 530.109 1923 437.891 2163 437.891 C 2403 437.891 2644 530.109 2884 530.109" transform="matrix(1,0,0,1,-545.6583862304688,0)" style="fill:none;stroke:rgb(37, 196, 185);transform:matrix(1, 0, 0, 1, -545.658, 0);;animation:none"></path>
<path stroke-width="2" stroke-opacity="0.6136363636363636" stroke="rgb(37, 198, 183)" fill="none" d="M 0 531.198 C 240 531.198 481 436.802 721 436.802 C 961 436.802 1202 531.198 1442 531.198 C 1682 531.198 1923 436.802 2163 436.802 C 2403 436.802 2644 531.198 2884 531.198" transform="matrix(1,0,0,1,-553.343994140625,0)" style="fill:none;stroke:rgb(37, 198, 183);transform:matrix(1, 0, 0, 1, -553.344, 0);;animation:none"></path>
<path stroke-width="2" stroke-opacity="0.6363636363636364" stroke="rgb(36, 201, 180)" fill="none" d="M 0 532.222 C 240 532.222 481 435.778 721 435.778 C 961 435.778 1202 532.222 1442 532.222 C 1682 532.222 1923 435.778 2163 435.778 C 2403 435.778 2644 532.222 2884 532.222" transform="matrix(1,0,0,1,-561.0292358398438,0)" style="fill:none;stroke:rgb(36, 201, 180);transform:matrix(1, 0, 0, 1, -561.029, 0);;animation:none"></path>
<path stroke-width="2" stroke-opacity="0.6590909090909091" stroke="rgb(36, 204, 177)" fill="none" d="M 0 533.183 C 240 533.183 481 434.817 721 434.817 C 961 434.817 1202 533.183 1442 533.183 C 1682 533.183 1923 434.817 2163 434.817 C 2403 434.817 2644 533.183 2884 533.183" transform="matrix(1,0,0,1,-568.7144165039062,0)" style="fill:none;stroke:rgb(36, 204, 177);transform:matrix(1, 0, 0, 1, -568.714, 0);;animation:none"></path>
<g></g></g><!-- [ldio] generated by https://loading.io --></svg>